<?xml version="1.0" encoding="UTF-8" standalone="no"?>
<svg width="4px" height="6px" viewBox="0 0 4 6" version="1.1" xmlns="http://www.w3.org/2000/svg" xmlns:xlink="http://www.w3.org/1999/xlink" xmlns:sketch="http://www.bohemiancoding.com/sketch/ns">
    <!-- Generator: Sketch 3.1 (8751) - http://www.bohemiancoding.com/sketch -->
    <title>Slice 2</title>
    <desc>Created with Sketch.</desc>
    <defs></defs>
    <g id="Page-1" stroke="none" stroke-width="1" fill="none" fill-rule="evenodd" sketch:type="MSPage">
        <path d="M7.49066667,-0.408565188 L7.49066667,-2.98956519 L7.49066667,-3.45356519 C7.49066667,-3.49056519 7.49266667,-3.52456519 7.44566667,-3.52456519 L7.37666667,-3.52456519 L7.10466667,-3.52456519 L6.01366667,-3.52456519 L3.83166667,-3.52456519 L2.74066667,-3.52456519 L2.60466667,-3.52456519 L2.53566667,-3.52456519 L2.50166667,-3.52456519 C2.47266667,-3.52456519 2.50066667,-3.55456519 2.50066667,-3.56856519 L2.50066667,-3.61856519 L2.50066667,-3.71956519 L2.50066667,-5.32056519 L2.50066667,-6.92156519 L2.50066667,-7.72256519 L2.50066667,-8.12256519 C2.50066667,-8.20956519 2.42166667,-8.16556519 2.37066667,-8.16556519 L-2.29533333,-8.16556519 L-8.08733333,-8.16556519 C-8.11633333,-8.16556519 -8.17033333,-8.20356519 -8.17033333,-8.14956519 L-8.17033333,-7.96456519 L-8.17033333,-7.59456519 L-8.17033333,-6.85456519 L-8.17033333,-5.37456519 L-8.17033333,-2.41556519 L-8.17033333,3.50243481 L-8.17033333,9.60243481 L-8.17033333,12.6524348 L-8.17033333,13.4144348 L-8.17033333,13.6064348 C-8.17033333,13.6634348 -7.98133333,13.6404348 -7.95133333,13.6404348 L-7.60933333,13.6404348 L-6.23933333,13.6404348 L-0.763333333,13.6404348 L3.47566667,13.6404348 L5.59566667,13.6404348 L6.65566667,13.6404348 L7.18566667,13.6404348 L7.45066667,13.6404348 C7.48166667,13.6404348 7.49066667,13.6244348 7.49066667,13.5954348 L7.49066667,11.0114348 C7.49066667,10.9774348 7.50166667,10.9564348 7.53866667,10.9624348 C7.55566667,10.9644348 7.57266667,10.9674348 7.58866667,10.9694348 C7.62166667,10.9744348 7.65566667,10.9794348 7.68866667,10.9834348 C7.82366667,10.9994348 7.95766667,11.0114348 8.09366667,11.0184348 C8.36466667,11.0324348 8.63366667,11.0294348 8.90466667,11.0044348 C9.03966667,10.9924348 9.17366667,10.9764348 9.30666667,10.9544348 C9.35366667,10.9474348 9.30966667,11.0024348 9.30966667,11.0274348 L9.30966667,11.5154348 L9.30966667,12.4194348 L9.30966667,13.9384348 C9.30966667,14.1294348 9.31266667,14.3214348 9.30866667,14.5134348 C9.30866667,14.5294348 9.30766667,14.5454348 9.30666667,14.5614348 C9.30466667,14.5944348 9.30066667,14.6264348 9.29566667,14.6584348 C9.28366667,14.7274348 9.26466667,14.7924348 9.23966667,14.8574348 C9.11466667,15.1644348 8.93666667,15.3254348 8.61866667,15.4204348 C8.54666667,15.4424348 8.47466667,15.4544348 8.39966667,15.4584348 C8.38166667,15.4594348 8.36466667,15.4594348 8.34666667,15.4594348 C6.47766667,15.4644348 4.60966667,15.4594348 2.74166667,15.4594348 L-8.91933333,15.4594348 C-9.25733333,15.4594348 -9.51233333,15.4024348 -9.75033333,15.1314348 C-9.84633333,15.0224348 -9.91033333,14.9054348 -9.95133333,14.7654348 C-9.96933333,14.7014348 -9.98133333,14.6384348 -9.98633333,14.5724348 C-9.98833333,14.5574348 -9.98833333,14.5414348 -9.98933333,14.5264348 C-10.0133333,13.7344348 -9.98933333,12.9434348 -9.98933333,12.1524348 L-9.98933333,-1.42756519 L-9.98933333,-8.47256519 C-9.98933333,-8.67056519 -9.99733333,-8.86756519 -9.98833333,-9.06456519 C-9.98733333,-9.09756519 -9.98433333,-9.13056519 -9.97933333,-9.16356519 C-9.96833333,-9.23256519 -9.95133333,-9.29956519 -9.92633333,-9.36456519 C-9.87133333,-9.50856519 -9.79333333,-9.62356519 -9.68133333,-9.72756519 C-9.56933333,-9.83056519 -9.44933333,-9.89956519 -9.30433333,-9.94356519 C-9.23833333,-9.96356519 -9.17233333,-9.97656519 -9.10433333,-9.98156519 C-8.64033333,-10.0205652 -8.17933333,-9.98556519 -7.71733333,-9.98556519 L-0.590333333,-9.98556519 L1.66666667,-9.98556519 L2.79566667,-9.98556519 C2.87766667,-9.98556519 2.95266667,-10.0005652 3.02166667,-9.92956519 C3.06766667,-9.88256519 3.11366667,-9.83556519 3.15966667,-9.78856519 C3.25166667,-9.69456519 3.34366667,-9.59956519 3.43566667,-9.50556519 C4.17266667,-8.75056519 4.90866667,-7.99556519 5.64566667,-7.24156519 C6.38266667,-6.48656519 7.11866667,-5.73156519 7.85566667,-4.97756519 C8.22366667,-4.59956519 8.59266667,-4.22256519 8.96066667,-3.84556519 C9.05266667,-3.75056519 9.14466667,-3.65656519 9.23666667,-3.56256519 C9.25966667,-3.53856519 9.28266667,-3.51456519 9.30566667,-3.49156519 C9.33566667,-3.46056519 9.30966667,-3.43256519 9.30966667,-3.40356519 L9.30966667,-3.30556519 L9.30966667,-2.87656519 L9.30966667,-0.570565188 C9.30966667,-0.514565188 9.38366667,-0.397565188 9.27866667,-0.413565188 C9.26766667,-0.414565188 9.25666667,-0.416565188 9.24566667,-0.418565188 C9.22466667,-0.421565188 9.20266667,-0.424565188 9.18166667,-0.427565188 C9.13866667,-0.433565188 9.09566667,-0.438565188 9.05266667,-0.443565188 C8.87866667,-0.463565188 8.70566667,-0.475565188 8.53166667,-0.479565188 C8.18066667,-0.487565188 7.83666667,-0.463565188 7.49066667,-0.408565188" id="Fill-159" fill="#FFFFFF" sketch:type="MSShapeGroup"></path>
    </g>
</svg>