<?xml version="1.0" encoding="UTF-8" standalone="no"?>
<svg width="8px" height="6px" viewBox="0 0 8 6" version="1.1" xmlns="http://www.w3.org/2000/svg" xmlns:xlink="http://www.w3.org/1999/xlink" xmlns:sketch="http://www.bohemiancoding.com/sketch/ns">
    <!-- Generator: Sketch 3.1 (8751) - http://www.bohemiancoding.com/sketch -->
    <title>Slice 2</title>
    <desc>Created with Sketch.</desc>
    <defs></defs>
    <g id="Page-1" stroke="none" stroke-width="1" fill="none" fill-rule="evenodd" sketch:type="MSPage">
        <path d="M8.557,14.405 C9.813,14.405 10.874,13.304 10.874,12 L10.874,-6.788 C10.874,-7.4111 10.64,-7.9731 10.199,-8.414 C9.768,-8.845 9.2,-9.073 8.557,-9.073 L1.346,-9.073 C0.012,-9.073 -1.073,-8.048 -1.073,-6.788 L-1.073,12 C-1.073,12.61 -0.808,13.2239 -0.347,13.6859 C0.103,14.1369 0.736,14.405 1.346,14.405 L8.557,14.405 Z M1.346,15.332 C0.494,15.332 -0.383,14.962 -1.003,14.342 C-1.636,13.707 -2,12.8529 -2,12 L-2,-6.788 C-2,-8.5591 -0.499,-10 1.346,-10 L8.557,-10 C9.451,-10 10.245,-9.678 10.854,-9.0691 C11.473,-8.451 11.801,-7.662 11.801,-6.788 L11.801,12 C11.801,13.8049 10.315,15.332 8.557,15.332 L1.346,15.332 Z" id="Fill-127" fill="#FFFFFF" sketch:type="MSShapeGroup"></path>
        <path d="M9.911,10.913 L1.125,10.913 C1.056,10.913 1,10.855 1,10.786 L1,-4.874 C1,-4.943 1.056,-5 1.125,-5 L9.911,-5 C9.98,-5 10.036,-4.943 10.036,-4.874 L10.036,10.786 C10.036,10.855 9.98,10.913 9.911,10.913" id="Fill-129" fill="#FFFFFF" sketch:type="MSShapeGroup"></path>
    </g>
</svg>